<svg width="506" height="257" viewBox="0 0 506 257" fill="none" xmlns="http://www.w3.org/2000/svg">
<rect x="3" y="1" width="16" height="16" rx="2" fill="#1565C0"/>
<path d="M38.8239 8.90909C38.8239 9.98295 38.63 10.911 38.2422 11.6932C37.8544 12.4754 37.3224 13.0786 36.6463 13.5028C35.9702 13.9271 35.1979 14.1392 34.3295 14.1392C33.4612 14.1392 32.6889 13.9271 32.0128 13.5028C31.3366 13.0786 30.8047 12.4754 30.4169 11.6932C30.0291 10.911 29.8352 9.98295 29.8352 8.90909C29.8352 7.83523 30.0291 6.9072 30.4169 6.125C30.8047 5.3428 31.3366 4.73958 32.0128 4.31534C32.6889 3.8911 33.4612 3.67898 34.3295 3.67898C35.1979 3.67898 35.9702 3.8911 36.6463 4.31534C37.3224 4.73958 37.8544 5.3428 38.2422 6.125C38.63 6.9072 38.8239 7.83523 38.8239 8.90909ZM37.6307 8.90909C37.6307 8.02746 37.4832 7.28338 37.1882 6.67685C36.8965 6.07031 36.5005 5.61127 36 5.29972C35.5028 4.98816 34.946 4.83239 34.3295 4.83239C33.7131 4.83239 33.1546 4.98816 32.6541 5.29972C32.157 5.61127 31.7609 6.07031 31.4659 6.67685C31.1742 7.28338 31.0284 8.02746 31.0284 8.90909C31.0284 9.79072 31.1742 10.5348 31.4659 11.1413C31.7609 11.7479 32.157 12.2069 32.6541 12.5185C33.1546 12.83 33.7131 12.9858 34.3295 12.9858C34.946 12.9858 35.5028 12.83 36 12.5185C36.5005 12.2069 36.8965 11.7479 37.1882 11.1413C37.4832 10.5348 37.6307 9.79072 37.6307 8.90909ZM45.5504 10.8778V6.36364H46.7237V14H45.5504V12.7074H45.4709C45.2919 13.0952 45.0135 13.425 44.6357 13.6967C44.2578 13.9652 43.7805 14.0994 43.2038 14.0994C42.7266 14.0994 42.3023 13.995 41.9311 13.7862C41.5599 13.5741 41.2682 13.2559 41.0561 12.8317C40.844 12.4041 40.7379 11.8655 40.7379 11.2159V6.36364H41.9112V11.1364C41.9112 11.6932 42.067 12.1373 42.3786 12.4688C42.6934 12.8002 43.0945 12.9659 43.5817 12.9659C43.8733 12.9659 44.17 12.8913 44.4716 12.7422C44.7765 12.593 45.0317 12.3643 45.2372 12.0561C45.446 11.7479 45.5504 11.3551 45.5504 10.8778ZM52.1937 6.36364V7.35795H48.2363V6.36364H52.1937ZM49.3897 4.53409H50.563V11.8125C50.563 12.1439 50.6111 12.3925 50.7072 12.5582C50.8066 12.7206 50.9326 12.83 51.085 12.8864C51.2408 12.9394 51.4049 12.9659 51.5772 12.9659C51.7065 12.9659 51.8126 12.9593 51.8954 12.946C51.9783 12.9295 52.0446 12.9162 52.0943 12.9062L52.3329 13.9602C52.2534 13.9901 52.1423 14.0199 51.9998 14.0497C51.8573 14.0829 51.6767 14.0994 51.4579 14.0994C51.1265 14.0994 50.8017 14.0282 50.4835 13.8857C50.1686 13.7431 49.9068 13.526 49.698 13.2344C49.4925 12.9427 49.3897 12.5748 49.3897 12.1307V4.53409ZM58.0552 14V3.81818H61.4956C62.2943 3.81818 62.9473 3.96236 63.4544 4.25071C63.9648 4.53575 64.3426 4.92188 64.5879 5.40909C64.8332 5.89631 64.9558 6.43987 64.9558 7.03977C64.9558 7.63968 64.8332 8.1849 64.5879 8.67543C64.3459 9.16596 63.9714 9.55705 63.4643 9.84872C62.9572 10.1371 62.3076 10.2812 61.5154 10.2812H59.0495V9.1875H61.4757C62.0225 9.1875 62.4617 9.09304 62.7931 8.90412C63.1246 8.7152 63.3649 8.45999 63.514 8.13849C63.6665 7.81368 63.7427 7.44744 63.7427 7.03977C63.7427 6.6321 63.6665 6.26752 63.514 5.94602C63.3649 5.62453 63.1229 5.37263 62.7882 5.19034C62.4534 5.00473 62.0093 4.91193 61.4558 4.91193H59.2882V14H58.0552ZM69.03 14.179C68.5461 14.179 68.1069 14.0878 67.7125 13.9055C67.3181 13.7199 67.0049 13.4531 66.7729 13.1051C66.5409 12.7538 66.4249 12.3295 66.4249 11.8324C66.4249 11.3949 66.5111 11.0402 66.6834 10.7685C66.8558 10.4934 67.0861 10.2779 67.3745 10.1222C67.6628 9.96638 67.981 9.85038 68.329 9.77415C68.6803 9.6946 69.0333 9.63163 69.388 9.58523C69.852 9.52557 70.2282 9.48082 70.5165 9.45099C70.8082 9.41785 71.0203 9.36316 71.1529 9.28693C71.2888 9.2107 71.3567 9.07812 71.3567 8.8892V8.84943C71.3567 8.3589 71.2225 7.97775 70.954 7.70597C70.6889 7.43419 70.2862 7.2983 69.7459 7.2983C69.1858 7.2983 68.7466 7.42093 68.4284 7.66619C68.1103 7.91146 67.8865 8.1733 67.7573 8.4517L66.6436 8.05398C66.8425 7.58996 67.1077 7.22869 67.4391 6.97017C67.7739 6.70833 68.1384 6.52604 68.5328 6.4233C68.9306 6.31723 69.3217 6.2642 69.7061 6.2642C69.9514 6.2642 70.2331 6.29403 70.5513 6.35369C70.8728 6.41004 71.1827 6.5277 71.481 6.70668C71.7826 6.88565 72.0328 7.15578 72.2317 7.51705C72.4306 7.87831 72.53 8.36222 72.53 8.96875V14H71.3567V12.9659H71.2971C71.2175 13.1316 71.0849 13.3089 70.8993 13.4979C70.7137 13.6868 70.4668 13.8475 70.1586 13.9801C69.8503 14.1127 69.4741 14.179 69.03 14.179ZM69.209 13.125C69.673 13.125 70.0641 13.0339 70.3823 12.8516C70.7038 12.6693 70.9457 12.4339 71.1081 12.1456C71.2739 11.8572 71.3567 11.554 71.3567 11.2358V10.1619C71.307 10.2216 71.1976 10.2763 71.0286 10.326C70.8629 10.3724 70.6706 10.4138 70.4519 10.4503C70.2364 10.4834 70.026 10.5133 69.8205 10.5398C69.6183 10.563 69.4542 10.5829 69.3283 10.5994C69.0234 10.6392 68.7383 10.7038 68.4732 10.7933C68.2114 10.8795 67.9992 11.0104 67.8368 11.1861C67.6777 11.3584 67.5982 11.5937 67.5982 11.892C67.5982 12.2997 67.749 12.608 68.0506 12.8168C68.3555 13.0223 68.7417 13.125 69.209 13.125ZM77.9925 6.36364V7.35795H74.0352V6.36364H77.9925ZM75.1886 4.53409H76.3619V11.8125C76.3619 12.1439 76.4099 12.3925 76.506 12.5582C76.6055 12.7206 76.7314 12.83 76.8839 12.8864C77.0397 12.9394 77.2037 12.9659 77.3761 12.9659C77.5053 12.9659 77.6114 12.9593 77.6942 12.946C77.7771 12.9295 77.8434 12.9162 77.8931 12.9062L78.1317 13.9602C78.0522 13.9901 77.9412 14.0199 77.7987 14.0497C77.6561 14.0829 77.4755 14.0994 77.2567 14.0994C76.9253 14.0994 76.6005 14.0282 76.2823 13.8857C75.9674 13.7431 75.7056 13.526 75.4968 13.2344C75.2913 12.9427 75.1886 12.5748 75.1886 12.1307V4.53409ZM79.7575 14V6.36364H80.9308V14H79.7575ZM80.354 5.09091C80.1254 5.09091 79.9281 5.01302 79.7624 4.85724C79.6 4.70147 79.5188 4.5142 79.5188 4.29545C79.5188 4.0767 79.6 3.88944 79.7624 3.73366C79.9281 3.57789 80.1254 3.5 80.354 3.5C80.5827 3.5 80.7783 3.57789 80.9407 3.73366C81.1064 3.88944 81.1893 4.0767 81.1893 4.29545C81.1893 4.5142 81.1064 4.70147 80.9407 4.85724C80.7783 5.01302 80.5827 5.09091 80.354 5.09091ZM86.2814 14.1591C85.5456 14.1591 84.9109 13.9967 84.3773 13.6719C83.847 13.3438 83.4377 12.8864 83.1493 12.2997C82.8643 11.7098 82.7218 11.0237 82.7218 10.2415C82.7218 9.45928 82.8643 8.76989 83.1493 8.1733C83.4377 7.57339 83.8387 7.10606 84.3525 6.77131C84.8695 6.43324 85.4727 6.2642 86.1621 6.2642C86.5598 6.2642 86.9526 6.33049 87.3404 6.46307C87.7282 6.59564 88.0811 6.81108 88.3993 7.10938C88.7175 7.40436 88.9711 7.79545 89.16 8.28267C89.3489 8.76989 89.4434 9.36979 89.4434 10.0824V10.5795H83.557V9.56534H88.2502C88.2502 9.13447 88.164 8.75 87.9917 8.41193C87.8226 8.07386 87.5807 7.80705 87.2658 7.61151C86.9542 7.41596 86.5864 7.31818 86.1621 7.31818C85.6948 7.31818 85.2904 7.43419 84.949 7.66619C84.611 7.89489 84.3508 8.19318 84.1685 8.56108C83.9862 8.92898 83.8951 9.32339 83.8951 9.74432V10.4205C83.8951 10.9972 83.9945 11.486 84.1934 11.8871C84.3955 12.2848 84.6756 12.5881 85.0336 12.7969C85.3915 13.0024 85.8075 13.1051 86.2814 13.1051C86.5897 13.1051 86.8681 13.062 87.1167 12.9759C87.3685 12.8864 87.5856 12.7538 87.7679 12.5781C87.9502 12.3991 88.0911 12.1771 88.1905 11.9119L89.324 12.2301C89.2047 12.6146 89.0042 12.9527 88.7225 13.2443C88.4408 13.5327 88.0927 13.758 87.6784 13.9205C87.2641 14.0795 86.7985 14.1591 86.2814 14.1591ZM92.4015 9.40625V14H91.2282V6.36364H92.3617V7.55682H92.4611C92.6401 7.16903 92.9119 6.85748 93.2765 6.62216C93.641 6.38352 94.1117 6.2642 94.6884 6.2642C95.2054 6.2642 95.6578 6.37027 96.0456 6.58239C96.4334 6.79119 96.735 7.10938 96.9505 7.53693C97.1659 7.96117 97.2736 8.49811 97.2736 9.14773V14H96.1003V9.22727C96.1003 8.62737 95.9445 8.16004 95.633 7.82528C95.3214 7.48722 94.8939 7.31818 94.3503 7.31818C93.9758 7.31818 93.641 7.39938 93.3461 7.56179C93.0544 7.72419 92.824 7.96117 92.655 8.27273C92.486 8.58428 92.4015 8.96212 92.4015 9.40625ZM102.739 6.36364V7.35795H98.7812V6.36364H102.739ZM99.9347 4.53409H101.108V11.8125C101.108 12.1439 101.156 12.3925 101.252 12.5582C101.352 12.7206 101.478 12.83 101.63 12.8864C101.786 12.9394 101.95 12.9659 102.122 12.9659C102.251 12.9659 102.357 12.9593 102.44 12.946C102.523 12.9295 102.589 12.9162 102.639 12.9062L102.878 13.9602C102.798 13.9901 102.687 14.0199 102.545 14.0497C102.402 14.0829 102.222 14.0994 102.003 14.0994C101.671 14.0994 101.347 14.0282 101.028 13.8857C100.714 13.7431 100.452 13.526 100.243 13.2344C100.037 12.9427 99.9347 12.5748 99.9347 12.1307V4.53409Z" fill="black"/>
<rect x="136" y="1" width="16" height="16" rx="2" fill="#1565C0" fill-opacity="0.3"/>
<path d="M164.466 3.81818V14H163.233V3.81818H164.466ZM167.952 9.40625V14H166.779V6.36364H167.912V7.55682H168.012C168.191 7.16903 168.463 6.85748 168.827 6.62216C169.192 6.38352 169.662 6.2642 170.239 6.2642C170.756 6.2642 171.209 6.37027 171.596 6.58239C171.984 6.79119 172.286 7.10938 172.501 7.53693C172.717 7.96117 172.824 8.49811 172.824 9.14773V14H171.651V9.22727C171.651 8.62737 171.495 8.16004 171.184 7.82528C170.872 7.48722 170.445 7.31818 169.901 7.31818C169.527 7.31818 169.192 7.39938 168.897 7.56179C168.605 7.72419 168.375 7.96117 168.206 8.27273C168.037 8.58428 167.952 8.96212 167.952 9.40625ZM179.065 14V3.81818H182.505C183.304 3.81818 183.957 3.96236 184.464 4.25071C184.975 4.53575 185.352 4.92188 185.598 5.40909C185.843 5.89631 185.966 6.43987 185.966 7.03977C185.966 7.63968 185.843 8.1849 185.598 8.67543C185.356 9.16596 184.981 9.55705 184.474 9.84872C183.967 10.1371 183.317 10.2812 182.525 10.2812H180.059V9.1875H182.485C183.032 9.1875 183.471 9.09304 183.803 8.90412C184.134 8.7152 184.375 8.45999 184.524 8.13849C184.676 7.81368 184.752 7.44744 184.752 7.03977C184.752 6.6321 184.676 6.26752 184.524 5.94602C184.375 5.62453 184.133 5.37263 183.798 5.19034C183.463 5.00473 183.019 4.91193 182.466 4.91193H180.298V14H179.065ZM190.04 14.179C189.556 14.179 189.117 14.0878 188.722 13.9055C188.328 13.7199 188.015 13.4531 187.783 13.1051C187.551 12.7538 187.435 12.3295 187.435 11.8324C187.435 11.3949 187.521 11.0402 187.693 10.7685C187.866 10.4934 188.096 10.2779 188.384 10.1222C188.673 9.96638 188.991 9.85038 189.339 9.77415C189.69 9.6946 190.043 9.63163 190.398 9.58523C190.862 9.52557 191.238 9.48082 191.526 9.45099C191.818 9.41785 192.03 9.36316 192.163 9.28693C192.299 9.2107 192.366 9.07812 192.366 8.8892V8.84943C192.366 8.3589 192.232 7.97775 191.964 7.70597C191.699 7.43419 191.296 7.2983 190.756 7.2983C190.196 7.2983 189.756 7.42093 189.438 7.66619C189.12 7.91146 188.896 8.1733 188.767 8.4517L187.653 8.05398C187.852 7.58996 188.117 7.22869 188.449 6.97017C188.784 6.70833 189.148 6.52604 189.543 6.4233C189.94 6.31723 190.331 6.2642 190.716 6.2642C190.961 6.2642 191.243 6.29403 191.561 6.35369C191.883 6.41004 192.192 6.5277 192.491 6.70668C192.792 6.88565 193.043 7.15578 193.241 7.51705C193.44 7.87831 193.54 8.36222 193.54 8.96875V14H192.366V12.9659H192.307C192.227 13.1316 192.095 13.3089 191.909 13.4979C191.723 13.6868 191.477 13.8475 191.168 13.9801C190.86 14.1127 190.484 14.179 190.04 14.179ZM190.219 13.125C190.683 13.125 191.074 13.0339 191.392 12.8516C191.714 12.6693 191.955 12.4339 192.118 12.1456C192.284 11.8572 192.366 11.554 192.366 11.2358V10.1619C192.317 10.2216 192.207 10.2763 192.038 10.326C191.873 10.3724 191.68 10.4138 191.462 10.4503C191.246 10.4834 191.036 10.5133 190.83 10.5398C190.628 10.563 190.464 10.5829 190.338 10.5994C190.033 10.6392 189.748 10.7038 189.483 10.7933C189.221 10.8795 189.009 11.0104 188.847 11.1861C188.688 11.3584 188.608 11.5937 188.608 11.892C188.608 12.2997 188.759 12.608 189.06 12.8168C189.365 13.0223 189.751 13.125 190.219 13.125ZM199.002 6.36364V7.35795H195.045V6.36364H199.002ZM196.198 4.53409H197.372V11.8125C197.372 12.1439 197.42 12.3925 197.516 12.5582C197.615 12.7206 197.741 12.83 197.894 12.8864C198.049 12.9394 198.213 12.9659 198.386 12.9659C198.515 12.9659 198.621 12.9593 198.704 12.946C198.787 12.9295 198.853 12.9162 198.903 12.9062L199.142 13.9602C199.062 13.9901 198.951 14.0199 198.808 14.0497C198.666 14.0829 198.485 14.0994 198.267 14.0994C197.935 14.0994 197.61 14.0282 197.292 13.8857C196.977 13.7431 196.715 13.526 196.507 13.2344C196.301 12.9427 196.198 12.5748 196.198 12.1307V4.53409ZM200.767 14V6.36364H201.941V14H200.767ZM201.364 5.09091C201.135 5.09091 200.938 5.01302 200.772 4.85724C200.61 4.70147 200.529 4.5142 200.529 4.29545C200.529 4.0767 200.61 3.88944 200.772 3.73366C200.938 3.57789 201.135 3.5 201.364 3.5C201.593 3.5 201.788 3.57789 201.95 3.73366C202.116 3.88944 202.199 4.0767 202.199 4.29545C202.199 4.5142 202.116 4.70147 201.95 4.85724C201.788 5.01302 201.593 5.09091 201.364 5.09091ZM207.291 14.1591C206.555 14.1591 205.921 13.9967 205.387 13.6719C204.857 13.3438 204.447 12.8864 204.159 12.2997C203.874 11.7098 203.732 11.0237 203.732 10.2415C203.732 9.45928 203.874 8.76989 204.159 8.1733C204.447 7.57339 204.848 7.10606 205.362 6.77131C205.879 6.43324 206.482 6.2642 207.172 6.2642C207.57 6.2642 207.962 6.33049 208.35 6.46307C208.738 6.59564 209.091 6.81108 209.409 7.10938C209.727 7.40436 209.981 7.79545 210.17 8.28267C210.359 8.76989 210.453 9.36979 210.453 10.0824V10.5795H204.567V9.56534H209.26C209.26 9.13447 209.174 8.75 209.001 8.41193C208.832 8.07386 208.59 7.80705 208.276 7.61151C207.964 7.41596 207.596 7.31818 207.172 7.31818C206.705 7.31818 206.3 7.43419 205.959 7.66619C205.621 7.89489 205.361 8.19318 205.178 8.56108C204.996 8.92898 204.905 9.32339 204.905 9.74432V10.4205C204.905 10.9972 205.004 11.486 205.203 11.8871C205.405 12.2848 205.685 12.5881 206.043 12.7969C206.401 13.0024 206.817 13.1051 207.291 13.1051C207.599 13.1051 207.878 13.062 208.126 12.9759C208.378 12.8864 208.595 12.7538 208.778 12.5781C208.96 12.3991 209.101 12.1771 209.2 11.9119L210.334 12.2301C210.214 12.6146 210.014 12.9527 209.732 13.2443C209.451 13.5327 209.103 13.758 208.688 13.9205C208.274 14.0795 207.808 14.1591 207.291 14.1591ZM213.411 9.40625V14H212.238V6.36364H213.371V7.55682H213.471C213.65 7.16903 213.922 6.85748 214.286 6.62216C214.651 6.38352 215.121 6.2642 215.698 6.2642C216.215 6.2642 216.668 6.37027 217.055 6.58239C217.443 6.79119 217.745 7.10938 217.96 7.53693C218.176 7.96117 218.283 8.49811 218.283 9.14773V14H217.11V9.22727C217.11 8.62737 216.954 8.16004 216.643 7.82528C216.331 7.48722 215.904 7.31818 215.36 7.31818C214.986 7.31818 214.651 7.39938 214.356 7.56179C214.064 7.72419 213.834 7.96117 213.665 8.27273C213.496 8.58428 213.411 8.96212 213.411 9.40625ZM223.748 6.36364V7.35795H219.791V6.36364H223.748ZM220.944 4.53409H222.118V11.8125C222.118 12.1439 222.166 12.3925 222.262 12.5582C222.361 12.7206 222.487 12.83 222.64 12.8864C222.796 12.9394 222.96 12.9659 223.132 12.9659C223.261 12.9659 223.367 12.9593 223.45 12.946C223.533 12.9295 223.599 12.9162 223.649 12.9062L223.888 13.9602C223.808 13.9901 223.697 14.0199 223.555 14.0497C223.412 14.0829 223.231 14.0994 223.013 14.0994C222.681 14.0994 222.356 14.0282 222.038 13.8857C221.723 13.7431 221.461 13.526 221.253 13.2344C221.047 12.9427 220.944 12.5748 220.944 12.1307V4.53409Z" fill="black"/>
<path d="M281.173 254V246.727H285.903V247.832H282.491V249.806H285.658V250.911H282.491V252.896H285.932V254H281.173ZM293.224 246.727V254H292.052L288.625 249.046H288.565V254H287.248V246.727H288.427L291.85 251.685H291.914V246.727H293.224ZM294.34 247.832V246.727H300.143V247.832H297.895V254H296.588V247.832H294.34Z" fill="black"/>
<rect x="271" y="217" width="40" height="15" rx="6" fill="#1565C0"/>
<path d="M462.732 249.05C462.673 248.858 462.591 248.686 462.487 248.535C462.385 248.381 462.262 248.25 462.118 248.141C461.976 248.032 461.812 247.95 461.628 247.896C461.443 247.839 461.242 247.81 461.024 247.81C460.633 247.81 460.285 247.909 459.98 248.105C459.675 248.302 459.434 248.59 459.259 248.972C459.086 249.35 459 249.812 459 250.357C459 250.906 459.086 251.371 459.259 251.752C459.432 252.133 459.672 252.423 459.98 252.622C460.288 252.819 460.645 252.917 461.052 252.917C461.422 252.917 461.741 252.846 462.011 252.704C462.283 252.562 462.493 252.361 462.64 252.1C462.787 251.837 462.86 251.53 462.86 251.177L463.158 251.223H461.184V250.193H464.135V251.067C464.135 251.689 464.002 252.228 463.737 252.683C463.472 253.137 463.107 253.487 462.643 253.734C462.179 253.978 461.647 254.099 461.045 254.099C460.375 254.099 459.787 253.949 459.28 253.648C458.776 253.345 458.382 252.916 458.098 252.359C457.816 251.801 457.675 251.138 457.675 250.371C457.675 249.784 457.758 249.259 457.924 248.798C458.092 248.336 458.326 247.944 458.627 247.622C458.928 247.298 459.28 247.052 459.685 246.884C460.09 246.713 460.53 246.628 461.006 246.628C461.409 246.628 461.784 246.687 462.132 246.805C462.48 246.921 462.789 247.087 463.059 247.303C463.331 247.518 463.555 247.774 463.73 248.07C463.905 248.366 464.02 248.692 464.074 249.05H462.732ZM467.767 254.107C467.22 254.107 466.748 253.993 466.35 253.766C465.954 253.536 465.65 253.212 465.437 252.793C465.224 252.371 465.118 251.875 465.118 251.305C465.118 250.744 465.224 250.251 465.437 249.827C465.653 249.401 465.953 249.07 466.339 248.833C466.725 248.594 467.178 248.474 467.699 248.474C468.035 248.474 468.353 248.529 468.651 248.638C468.952 248.744 469.217 248.91 469.446 249.135C469.678 249.36 469.861 249.646 469.993 249.994C470.126 250.34 470.192 250.752 470.192 251.23V251.624H465.721V250.758H468.96C468.958 250.512 468.904 250.293 468.8 250.101C468.696 249.907 468.55 249.754 468.363 249.643C468.179 249.531 467.963 249.476 467.717 249.476C467.454 249.476 467.223 249.54 467.025 249.668C466.826 249.793 466.671 249.959 466.559 250.165C466.45 250.368 466.395 250.592 466.392 250.836V251.592C466.392 251.91 466.45 252.182 466.566 252.409C466.682 252.634 466.845 252.807 467.053 252.928C467.261 253.046 467.505 253.105 467.784 253.105C467.971 253.105 468.141 253.079 468.292 253.027C468.444 252.973 468.575 252.893 468.686 252.789C468.798 252.685 468.882 252.556 468.939 252.402L470.139 252.537C470.063 252.854 469.919 253.131 469.706 253.368C469.495 253.602 469.225 253.785 468.896 253.915C468.567 254.043 468.19 254.107 467.767 254.107ZM472.565 250.804V254H471.28V248.545H472.508V249.472H472.572C472.698 249.167 472.898 248.924 473.172 248.744C473.449 248.564 473.791 248.474 474.199 248.474C474.575 248.474 474.903 248.555 475.182 248.716C475.464 248.877 475.682 249.11 475.836 249.415C475.992 249.721 476.069 250.091 476.067 250.527V254H474.781V250.726C474.781 250.361 474.686 250.076 474.497 249.87C474.31 249.664 474.051 249.561 473.719 249.561C473.494 249.561 473.294 249.611 473.119 249.71C472.946 249.807 472.81 249.948 472.711 250.133C472.614 250.317 472.565 250.541 472.565 250.804ZM479.788 254.107C479.241 254.107 478.769 253.993 478.371 253.766C477.976 253.536 477.672 253.212 477.459 252.793C477.246 252.371 477.139 251.875 477.139 251.305C477.139 250.744 477.246 250.251 477.459 249.827C477.674 249.401 477.975 249.07 478.361 248.833C478.747 248.594 479.2 248.474 479.721 248.474C480.057 248.474 480.374 248.529 480.672 248.638C480.973 248.744 481.238 248.91 481.468 249.135C481.7 249.36 481.882 249.646 482.015 249.994C482.147 250.34 482.214 250.752 482.214 251.23V251.624H477.743V250.758H480.981C480.979 250.512 480.926 250.293 480.822 250.101C480.717 249.907 480.572 249.754 480.385 249.643C480.2 249.531 479.985 249.476 479.738 249.476C479.476 249.476 479.245 249.54 479.046 249.668C478.847 249.793 478.692 249.959 478.581 250.165C478.472 250.368 478.416 250.592 478.414 250.836V251.592C478.414 251.91 478.472 252.182 478.588 252.409C478.704 252.634 478.866 252.807 479.074 252.928C479.283 253.046 479.527 253.105 479.806 253.105C479.993 253.105 480.162 253.079 480.314 253.027C480.465 252.973 480.597 252.893 480.708 252.789C480.819 252.685 480.903 252.556 480.96 252.402L482.16 252.537C482.085 252.854 481.94 253.131 481.727 253.368C481.516 253.602 481.247 253.785 480.917 253.915C480.588 254.043 480.212 254.107 479.788 254.107ZM483.301 254V248.545H484.548V249.455H484.604C484.704 249.14 484.874 248.897 485.116 248.727C485.36 248.554 485.638 248.467 485.95 248.467C486.021 248.467 486.101 248.471 486.188 248.478C486.278 248.483 486.353 248.491 486.412 248.503V249.685C486.357 249.666 486.271 249.65 486.153 249.636C486.037 249.619 485.924 249.611 485.815 249.611C485.581 249.611 485.37 249.662 485.183 249.763C484.999 249.863 484.853 250.001 484.746 250.179C484.64 250.357 484.587 250.561 484.587 250.793V254H483.301ZM488.738 254.11C488.392 254.11 488.081 254.049 487.804 253.925C487.529 253.8 487.312 253.615 487.151 253.371C486.992 253.128 486.913 252.827 486.913 252.469C486.913 252.162 486.969 251.907 487.083 251.706C487.197 251.505 487.352 251.344 487.548 251.223C487.745 251.102 487.966 251.011 488.212 250.95C488.461 250.886 488.718 250.839 488.983 250.811C489.303 250.778 489.562 250.748 489.761 250.722C489.96 250.694 490.104 250.651 490.194 250.594C490.286 250.535 490.332 250.444 490.332 250.321V250.3C490.332 250.032 490.253 249.825 490.094 249.678C489.936 249.531 489.707 249.458 489.409 249.458C489.094 249.458 488.844 249.527 488.66 249.664C488.478 249.801 488.354 249.964 488.29 250.151L487.09 249.98C487.185 249.649 487.341 249.372 487.559 249.149C487.777 248.924 488.043 248.756 488.358 248.645C488.673 248.531 489.021 248.474 489.402 248.474C489.665 248.474 489.926 248.505 490.187 248.567C490.447 248.628 490.685 248.73 490.901 248.872C491.116 249.012 491.289 249.202 491.419 249.444C491.552 249.685 491.618 249.987 491.618 250.349V254H490.382V253.251H490.339C490.261 253.402 490.151 253.544 490.009 253.677C489.87 253.807 489.693 253.912 489.48 253.993C489.269 254.071 489.022 254.11 488.738 254.11ZM489.072 253.165C489.33 253.165 489.554 253.115 489.743 253.013C489.932 252.909 490.078 252.771 490.18 252.601C490.284 252.43 490.336 252.245 490.336 252.043V251.401C490.296 251.434 490.227 251.464 490.13 251.493C490.035 251.521 489.929 251.546 489.81 251.567C489.692 251.589 489.575 251.608 489.459 251.624C489.343 251.641 489.242 251.655 489.157 251.667C488.965 251.693 488.794 251.736 488.642 251.795C488.491 251.854 488.371 251.937 488.283 252.043C488.196 252.147 488.152 252.282 488.152 252.448C488.152 252.685 488.238 252.864 488.411 252.984C488.584 253.105 488.804 253.165 489.072 253.165ZM494.196 246.727V254H492.911V246.727H494.196Z" fill="black"/>
<rect x="456" y="117" width="40" height="115" rx="6" fill="#1565C0"/>
<rect x="456" y="55" width="40" height="57" rx="6" fill="#1565C0" fill-opacity="0.3"/>
<path d="M400.667 249.05C400.607 248.858 400.526 248.686 400.422 248.535C400.32 248.381 400.197 248.25 400.052 248.141C399.91 248.032 399.747 247.95 399.562 247.896C399.378 247.839 399.176 247.81 398.959 247.81C398.568 247.81 398.22 247.909 397.915 248.105C397.609 248.302 397.369 248.59 397.194 248.972C397.021 249.35 396.934 249.812 396.934 250.357C396.934 250.906 397.021 251.371 397.194 251.752C397.366 252.133 397.607 252.423 397.915 252.622C398.222 252.819 398.58 252.917 398.987 252.917C399.356 252.917 399.676 252.846 399.946 252.704C400.218 252.562 400.428 252.361 400.574 252.1C400.721 251.837 400.794 251.53 400.794 251.177L401.093 251.223H399.118V250.193H402.069V251.067C402.069 251.689 401.937 252.228 401.672 252.683C401.406 253.137 401.042 253.487 400.578 253.734C400.114 253.978 399.581 254.099 398.98 254.099C398.31 254.099 397.722 253.949 397.215 253.648C396.711 253.345 396.316 252.916 396.032 252.359C395.751 251.801 395.61 251.138 395.61 250.371C395.61 249.784 395.693 249.259 395.858 248.798C396.026 248.336 396.261 247.944 396.562 247.622C396.862 247.298 397.215 247.052 397.62 246.884C398.025 246.713 398.465 246.628 398.941 246.628C399.343 246.628 399.718 246.687 400.066 246.805C400.415 246.921 400.723 247.087 400.993 247.303C401.266 247.518 401.489 247.774 401.665 248.07C401.84 248.366 401.955 248.692 402.009 249.05H400.667ZM404.085 256.045C403.91 256.045 403.748 256.031 403.599 256.003C403.452 255.977 403.335 255.946 403.247 255.911L403.546 254.909C403.733 254.964 403.9 254.99 404.046 254.987C404.193 254.985 404.322 254.939 404.434 254.849C404.547 254.761 404.643 254.614 404.721 254.408L404.831 254.114L402.853 248.545H404.217L405.474 252.665H405.531L406.791 248.545H408.159L405.975 254.661C405.873 254.949 405.738 255.197 405.57 255.403C405.402 255.611 405.196 255.77 404.952 255.879C404.71 255.99 404.422 256.045 404.085 256.045ZM410.334 250.804V254H409.048V248.545H410.277V249.472H410.341C410.466 249.167 410.666 248.924 410.941 248.744C411.218 248.564 411.56 248.474 411.967 248.474C412.344 248.474 412.672 248.555 412.951 248.716C413.233 248.877 413.45 249.11 413.604 249.415C413.761 249.721 413.838 250.091 413.835 250.527V254H412.55V250.726C412.55 250.361 412.455 250.076 412.266 249.87C412.079 249.664 411.819 249.561 411.488 249.561C411.263 249.561 411.063 249.611 410.888 249.71C410.715 249.807 410.579 249.948 410.479 250.133C410.382 250.317 410.334 250.541 410.334 250.804ZM416.712 254.11C416.366 254.11 416.055 254.049 415.778 253.925C415.503 253.8 415.285 253.615 415.124 253.371C414.966 253.128 414.886 252.827 414.886 252.469C414.886 252.162 414.943 251.907 415.057 251.706C415.17 251.505 415.325 251.344 415.522 251.223C415.718 251.102 415.94 251.011 416.186 250.95C416.435 250.886 416.691 250.839 416.957 250.811C417.276 250.778 417.535 250.748 417.734 250.722C417.933 250.694 418.078 250.651 418.168 250.594C418.26 250.535 418.306 250.444 418.306 250.321V250.3C418.306 250.032 418.227 249.825 418.068 249.678C417.909 249.531 417.681 249.458 417.383 249.458C417.068 249.458 416.818 249.527 416.633 249.664C416.451 249.801 416.328 249.964 416.264 250.151L415.064 249.98C415.159 249.649 415.315 249.372 415.533 249.149C415.75 248.924 416.017 248.756 416.332 248.645C416.646 248.531 416.994 248.474 417.376 248.474C417.638 248.474 417.9 248.505 418.16 248.567C418.421 248.628 418.659 248.73 418.874 248.872C419.09 249.012 419.262 249.202 419.393 249.444C419.525 249.685 419.592 249.987 419.592 250.349V254H418.356V253.251H418.313C418.235 253.402 418.125 253.544 417.983 253.677C417.843 253.807 417.667 253.912 417.454 253.993C417.243 254.071 416.996 254.11 416.712 254.11ZM417.045 253.165C417.303 253.165 417.527 253.115 417.717 253.013C417.906 252.909 418.052 252.771 418.153 252.601C418.257 252.43 418.31 252.245 418.31 252.043V251.401C418.269 251.434 418.201 251.464 418.104 251.493C418.009 251.521 417.902 251.546 417.784 251.567C417.666 251.589 417.548 251.608 417.432 251.624C417.316 251.641 417.216 251.655 417.131 251.667C416.939 251.693 416.767 251.736 416.616 251.795C416.464 251.854 416.345 251.937 416.257 252.043C416.169 252.147 416.126 252.282 416.126 252.448C416.126 252.685 416.212 252.864 416.385 252.984C416.558 253.105 416.778 253.165 417.045 253.165ZM423.299 254.107C422.752 254.107 422.28 253.993 421.882 253.766C421.487 253.536 421.182 253.212 420.969 252.793C420.756 252.371 420.65 251.875 420.65 251.305C420.65 250.744 420.756 250.251 420.969 249.827C421.185 249.401 421.485 249.07 421.871 248.833C422.257 248.594 422.711 248.474 423.231 248.474C423.568 248.474 423.885 248.529 424.183 248.638C424.484 248.744 424.749 248.91 424.979 249.135C425.211 249.36 425.393 249.646 425.525 249.994C425.658 250.34 425.724 250.752 425.724 251.23V251.624H421.253V250.758H424.492C424.49 250.512 424.436 250.293 424.332 250.101C424.228 249.907 424.083 249.754 423.896 249.643C423.711 249.531 423.495 249.476 423.249 249.476C422.986 249.476 422.756 249.54 422.557 249.668C422.358 249.793 422.203 249.959 422.092 250.165C421.983 250.368 421.927 250.592 421.925 250.836V251.592C421.925 251.91 421.983 252.182 422.099 252.409C422.215 252.634 422.377 252.807 422.585 252.928C422.793 253.046 423.037 253.105 423.317 253.105C423.504 253.105 423.673 253.079 423.824 253.027C423.976 252.973 424.107 252.893 424.219 252.789C424.33 252.685 424.414 252.556 424.471 252.402L425.671 252.537C425.595 252.854 425.451 253.131 425.238 253.368C425.027 253.602 424.757 253.785 424.428 253.915C424.099 254.043 423.723 254.107 423.299 254.107ZM429.191 254.107C428.647 254.107 428.179 253.987 427.788 253.748C427.4 253.509 427.101 253.179 426.89 252.757C426.682 252.333 426.578 251.846 426.578 251.294C426.578 250.74 426.684 250.251 426.897 249.827C427.11 249.401 427.411 249.07 427.799 248.833C428.19 248.594 428.651 248.474 429.184 248.474C429.627 248.474 430.019 248.556 430.359 248.719C430.703 248.88 430.976 249.109 431.18 249.405C431.383 249.698 431.499 250.042 431.528 250.435H430.299C430.249 250.172 430.131 249.953 429.944 249.778C429.759 249.6 429.512 249.511 429.202 249.511C428.939 249.511 428.708 249.582 428.509 249.724C428.31 249.864 428.155 250.065 428.044 250.328C427.935 250.591 427.881 250.906 427.881 251.273C427.881 251.644 427.935 251.964 428.044 252.232C428.153 252.497 428.306 252.701 428.502 252.846C428.701 252.988 428.934 253.059 429.202 253.059C429.391 253.059 429.56 253.023 429.71 252.952C429.861 252.879 429.988 252.774 430.09 252.636C430.191 252.499 430.261 252.332 430.299 252.136H431.528C431.497 252.522 431.383 252.864 431.187 253.162C430.99 253.458 430.723 253.69 430.384 253.858C430.046 254.024 429.648 254.107 429.191 254.107Z" fill="black"/>
<rect x="394" y="141" width="40" height="91" rx="6" fill="#1565C0"/>
<rect x="394" y="75" width="40" height="61" rx="6" fill="#1565C0" fill-opacity="0.3"/>
<path d="M346.649 250.364C346.649 251.147 346.502 251.818 346.208 252.377C345.917 252.933 345.519 253.36 345.015 253.656C344.513 253.951 343.944 254.099 343.307 254.099C342.67 254.099 342.1 253.951 341.595 253.656C341.093 253.357 340.696 252.93 340.402 252.374C340.111 251.815 339.965 251.145 339.965 250.364C339.965 249.58 340.111 248.91 340.402 248.354C340.696 247.795 341.093 247.368 341.595 247.072C342.1 246.776 342.67 246.628 343.307 246.628C343.944 246.628 344.513 246.776 345.015 247.072C345.519 247.368 345.917 247.795 346.208 248.354C346.502 248.91 346.649 249.58 346.649 250.364ZM345.324 250.364C345.324 249.812 345.238 249.347 345.065 248.968C344.894 248.587 344.658 248.299 344.354 248.105C344.051 247.909 343.702 247.81 343.307 247.81C342.912 247.81 342.562 247.909 342.259 248.105C341.956 248.299 341.718 248.587 341.546 248.968C341.375 249.347 341.29 249.812 341.29 250.364C341.29 250.915 341.375 251.382 341.546 251.763C341.718 252.142 341.956 252.429 342.259 252.626C342.562 252.82 342.912 252.917 343.307 252.917C343.702 252.917 344.051 252.82 344.354 252.626C344.658 252.429 344.894 252.142 345.065 251.763C345.238 251.382 345.324 250.915 345.324 250.364ZM347.837 254V248.545H349.084V249.455H349.141C349.24 249.14 349.41 248.897 349.652 248.727C349.896 248.554 350.174 248.467 350.486 248.467C350.557 248.467 350.637 248.471 350.724 248.478C350.814 248.483 350.889 248.491 350.948 248.503V249.685C350.894 249.666 350.807 249.65 350.689 249.636C350.573 249.619 350.46 249.611 350.351 249.611C350.117 249.611 349.906 249.662 349.719 249.763C349.535 249.863 349.389 250.001 349.283 250.179C349.176 250.357 349.123 250.561 349.123 250.793V254H347.837ZM354.819 248.545V249.54H351.683V248.545H354.819ZM352.457 247.239H353.743V252.359C353.743 252.532 353.769 252.665 353.821 252.757C353.875 252.847 353.946 252.909 354.034 252.942C354.122 252.975 354.219 252.991 354.325 252.991C354.406 252.991 354.479 252.986 354.545 252.974C354.614 252.962 354.666 252.951 354.702 252.942L354.918 253.947C354.85 253.97 354.751 253.996 354.623 254.025C354.498 254.053 354.344 254.07 354.162 254.075C353.84 254.084 353.55 254.036 353.292 253.929C353.034 253.82 352.829 253.652 352.677 253.425C352.528 253.197 352.455 252.913 352.457 252.572V247.239ZM357.297 250.804V254H356.011V246.727H357.268V249.472H357.332C357.46 249.165 357.658 248.922 357.925 248.744C358.195 248.564 358.538 248.474 358.955 248.474C359.334 248.474 359.664 248.554 359.946 248.712C360.227 248.871 360.445 249.103 360.599 249.408C360.755 249.714 360.834 250.087 360.834 250.527V254H359.548V250.726C359.548 250.359 359.453 250.074 359.264 249.87C359.077 249.664 358.814 249.561 358.476 249.561C358.248 249.561 358.045 249.611 357.865 249.71C357.687 249.807 357.548 249.948 357.446 250.133C357.346 250.317 357.297 250.541 357.297 250.804ZM364.523 254.107C363.991 254.107 363.529 253.989 363.138 253.755C362.748 253.521 362.445 253.193 362.229 252.771C362.016 252.35 361.91 251.857 361.91 251.294C361.91 250.731 362.016 250.237 362.229 249.813C362.445 249.389 362.748 249.06 363.138 248.826C363.529 248.592 363.991 248.474 364.523 248.474C365.056 248.474 365.517 248.592 365.908 248.826C366.299 249.06 366.601 249.389 366.814 249.813C367.029 250.237 367.137 250.731 367.137 251.294C367.137 251.857 367.029 252.35 366.814 252.771C366.601 253.193 366.299 253.521 365.908 253.755C365.517 253.989 365.056 254.107 364.523 254.107ZM364.53 253.077C364.819 253.077 365.061 252.997 365.255 252.839C365.449 252.678 365.593 252.462 365.688 252.192C365.785 251.923 365.834 251.622 365.834 251.29C365.834 250.957 365.785 250.655 365.688 250.385C365.593 250.113 365.449 249.896 365.255 249.735C365.061 249.574 364.819 249.494 364.53 249.494C364.234 249.494 363.988 249.574 363.792 249.735C363.598 249.896 363.452 250.113 363.355 250.385C363.26 250.655 363.213 250.957 363.213 251.29C363.213 251.622 363.26 251.923 363.355 252.192C363.452 252.462 363.598 252.678 363.792 252.839C363.988 252.997 364.234 253.077 364.53 253.077Z" fill="black"/>
<rect x="334" y="180" width="40" height="52" rx="6" fill="#1565C0"/>
<rect x="334" y="151" width="40" height="24" rx="6" fill="#1565C0" fill-opacity="0.3"/>
<path d="M206.179 254V246.727H208.907C209.465 246.727 209.934 246.831 210.313 247.04C210.694 247.248 210.982 247.535 211.176 247.899C211.372 248.261 211.47 248.673 211.47 249.135C211.47 249.601 211.372 250.016 211.176 250.378C210.979 250.74 210.689 251.025 210.306 251.234C209.922 251.44 209.45 251.543 208.889 251.543H207.081V250.46H208.711C209.038 250.46 209.305 250.403 209.514 250.289C209.722 250.175 209.876 250.019 209.975 249.82C210.077 249.621 210.128 249.393 210.128 249.135C210.128 248.877 210.077 248.65 209.975 248.453C209.876 248.257 209.721 248.104 209.51 247.995C209.302 247.884 209.033 247.828 208.704 247.828H207.497V254H206.179ZM214.895 254.107C214.348 254.107 213.875 253.993 213.478 253.766C213.082 253.536 212.778 253.212 212.565 252.793C212.352 252.371 212.245 251.875 212.245 251.305C212.245 250.744 212.352 250.251 212.565 249.827C212.781 249.401 213.081 249.07 213.467 248.833C213.853 248.594 214.306 248.474 214.827 248.474C215.163 248.474 215.481 248.529 215.779 248.638C216.08 248.744 216.345 248.91 216.574 249.135C216.806 249.36 216.989 249.646 217.121 249.994C217.254 250.34 217.32 250.752 217.32 251.23V251.624H212.849V250.758H216.088C216.085 250.512 216.032 250.293 215.928 250.101C215.824 249.907 215.678 249.754 215.491 249.643C215.307 249.531 215.091 249.476 214.845 249.476C214.582 249.476 214.351 249.54 214.152 249.668C213.954 249.793 213.799 249.959 213.687 250.165C213.578 250.368 213.523 250.592 213.52 250.836V251.592C213.52 251.91 213.578 252.182 213.694 252.409C213.81 252.634 213.973 252.807 214.181 252.928C214.389 253.046 214.633 253.105 214.912 253.105C215.099 253.105 215.269 253.079 215.42 253.027C215.572 252.973 215.703 252.893 215.814 252.789C215.926 252.685 216.01 252.556 216.066 252.402L217.267 252.537C217.191 252.854 217.047 253.131 216.834 253.368C216.623 253.602 216.353 253.785 216.024 253.915C215.695 254.043 215.318 254.107 214.895 254.107ZM220.432 254.096C220.003 254.096 219.62 253.986 219.281 253.766C218.943 253.545 218.675 253.226 218.479 252.807C218.282 252.388 218.184 251.879 218.184 251.28C218.184 250.674 218.283 250.162 218.482 249.746C218.683 249.327 218.954 249.011 219.295 248.798C219.636 248.582 220.016 248.474 220.435 248.474C220.755 248.474 221.018 248.529 221.224 248.638C221.43 248.744 221.593 248.873 221.714 249.025C221.834 249.174 221.928 249.315 221.994 249.447H222.047V246.727H223.337V254H222.072V253.141H221.994C221.928 253.273 221.832 253.414 221.707 253.563C221.581 253.71 221.415 253.835 221.209 253.94C221.003 254.044 220.744 254.096 220.432 254.096ZM220.79 253.041C221.063 253.041 221.295 252.968 221.486 252.821C221.678 252.672 221.824 252.465 221.923 252.2C222.023 251.934 222.072 251.625 222.072 251.273C222.072 250.92 222.023 250.613 221.923 250.353C221.826 250.093 221.682 249.89 221.49 249.746C221.301 249.601 221.067 249.529 220.79 249.529C220.504 249.529 220.265 249.604 220.073 249.753C219.881 249.902 219.737 250.108 219.64 250.371C219.543 250.634 219.494 250.934 219.494 251.273C219.494 251.614 219.543 251.918 219.64 252.185C219.739 252.451 219.885 252.66 220.077 252.814C220.271 252.965 220.509 253.041 220.79 253.041ZM224.706 254V248.545H225.992V254H224.706ZM225.353 247.771C225.149 247.771 224.974 247.704 224.827 247.569C224.68 247.432 224.607 247.267 224.607 247.075C224.607 246.881 224.68 246.717 224.827 246.582C224.974 246.444 225.149 246.376 225.353 246.376C225.559 246.376 225.734 246.444 225.878 246.582C226.025 246.717 226.098 246.881 226.098 247.075C226.098 247.267 226.025 247.432 225.878 247.569C225.734 247.704 225.559 247.771 225.353 247.771ZM228.883 254.11C228.538 254.11 228.226 254.049 227.949 253.925C227.675 253.8 227.457 253.615 227.296 253.371C227.137 253.128 227.058 252.827 227.058 252.469C227.058 252.162 227.115 251.907 227.229 251.706C227.342 251.505 227.497 251.344 227.694 251.223C227.89 251.102 228.112 251.011 228.358 250.95C228.606 250.886 228.863 250.839 229.128 250.811C229.448 250.778 229.707 250.748 229.906 250.722C230.105 250.694 230.249 250.651 230.339 250.594C230.432 250.535 230.478 250.444 230.478 250.321V250.3C230.478 250.032 230.399 249.825 230.24 249.678C230.081 249.531 229.853 249.458 229.555 249.458C229.24 249.458 228.99 249.527 228.805 249.664C228.623 249.801 228.5 249.964 228.436 250.151L227.236 249.98C227.33 249.649 227.487 249.372 227.704 249.149C227.922 248.924 228.189 248.756 228.503 248.645C228.818 248.531 229.166 248.474 229.547 248.474C229.81 248.474 230.072 248.505 230.332 248.567C230.593 248.628 230.831 248.73 231.046 248.872C231.262 249.012 231.434 249.202 231.565 249.444C231.697 249.685 231.763 249.987 231.763 250.349V254H230.528V253.251H230.485C230.407 253.402 230.297 253.544 230.155 253.677C230.015 253.807 229.839 253.912 229.626 253.993C229.415 254.071 229.168 254.11 228.883 254.11ZM229.217 253.165C229.475 253.165 229.699 253.115 229.888 253.013C230.078 252.909 230.223 252.771 230.325 252.601C230.429 252.43 230.481 252.245 230.481 252.043V251.401C230.441 251.434 230.373 251.464 230.275 251.493C230.181 251.521 230.074 251.546 229.956 251.567C229.838 251.589 229.72 251.608 229.604 251.624C229.488 251.641 229.388 251.655 229.302 251.667C229.111 251.693 228.939 251.736 228.788 251.795C228.636 251.854 228.516 251.937 228.429 252.043C228.341 252.147 228.297 252.282 228.297 252.448C228.297 252.685 228.384 252.864 228.557 252.984C228.73 253.105 228.95 253.165 229.217 253.165ZM235.78 248.545V249.54H232.644V248.545H235.78ZM233.418 247.239H234.704V252.359C234.704 252.532 234.73 252.665 234.782 252.757C234.836 252.847 234.907 252.909 234.995 252.942C235.083 252.975 235.18 252.991 235.286 252.991C235.367 252.991 235.44 252.986 235.506 252.974C235.575 252.962 235.627 252.951 235.663 252.942L235.879 253.947C235.811 253.97 235.712 253.996 235.584 254.025C235.459 254.053 235.305 254.07 235.123 254.075C234.801 254.084 234.511 254.036 234.253 253.929C233.995 253.82 233.79 253.652 233.638 253.425C233.489 253.197 233.416 252.913 233.418 252.572V247.239ZM236.855 254V248.545H238.101V249.455H238.158C238.258 249.14 238.428 248.897 238.669 248.727C238.913 248.554 239.191 248.467 239.504 248.467C239.575 248.467 239.654 248.471 239.742 248.478C239.832 248.483 239.906 248.491 239.966 248.503V249.685C239.911 249.666 239.825 249.65 239.706 249.636C239.59 249.619 239.478 249.611 239.369 249.611C239.135 249.611 238.924 249.662 238.737 249.763C238.552 249.863 238.407 250.001 238.3 250.179C238.194 250.357 238.14 250.561 238.14 250.793V254H236.855ZM240.82 254V248.545H242.105V254H240.82ZM241.466 247.771C241.262 247.771 241.087 247.704 240.94 247.569C240.794 247.432 240.72 247.267 240.72 247.075C240.72 246.881 240.794 246.717 240.94 246.582C241.087 246.444 241.262 246.376 241.466 246.376C241.672 246.376 241.847 246.444 241.992 246.582C242.138 246.717 242.212 246.881 242.212 247.075C242.212 247.267 242.138 247.432 241.992 247.569C241.847 247.704 241.672 247.771 241.466 247.771ZM245.806 254.107C245.262 254.107 244.794 253.987 244.404 253.748C244.015 253.509 243.716 253.179 243.505 252.757C243.297 252.333 243.193 251.846 243.193 251.294C243.193 250.74 243.299 250.251 243.512 249.827C243.725 249.401 244.026 249.07 244.414 248.833C244.805 248.594 245.267 248.474 245.799 248.474C246.242 248.474 246.634 248.556 246.975 248.719C247.318 248.88 247.591 249.109 247.795 249.405C247.999 249.698 248.115 250.042 248.143 250.435H246.914C246.865 250.172 246.746 249.953 246.559 249.778C246.375 249.6 246.127 249.511 245.817 249.511C245.554 249.511 245.323 249.582 245.125 249.724C244.926 249.864 244.771 250.065 244.659 250.328C244.55 250.591 244.496 250.906 244.496 251.273C244.496 251.644 244.55 251.964 244.659 252.232C244.768 252.497 244.921 252.701 245.117 252.846C245.316 252.988 245.55 253.059 245.817 253.059C246.006 253.059 246.176 253.023 246.325 252.952C246.476 252.879 246.603 252.774 246.705 252.636C246.807 252.499 246.876 252.332 246.914 252.136H248.143C248.112 252.522 247.999 252.864 247.802 253.162C247.606 253.458 247.338 253.69 247 253.858C246.661 254.024 246.263 254.107 245.806 254.107Z" fill="black"/>
<rect x="207" y="159" width="40" height="73" rx="6" fill="#1565C0"/>
<rect x="207" y="125" width="40" height="29" rx="6" fill="#1565C0" fill-opacity="0.3"/>
<path d="M155.07 246.727V254H153.898L150.471 249.046H150.411V254H149.093V246.727H150.272L153.696 251.685H153.759V246.727H155.07ZM158.863 254.107C158.316 254.107 157.844 253.993 157.446 253.766C157.051 253.536 156.747 253.212 156.534 252.793C156.321 252.371 156.214 251.875 156.214 251.305C156.214 250.744 156.321 250.251 156.534 249.827C156.749 249.401 157.05 249.07 157.436 248.833C157.822 248.594 158.275 248.474 158.796 248.474C159.132 248.474 159.449 248.529 159.748 248.638C160.048 248.744 160.313 248.91 160.543 249.135C160.775 249.36 160.957 249.646 161.09 249.994C161.223 250.34 161.289 250.752 161.289 251.23V251.624H156.818V250.758H160.057C160.054 250.512 160.001 250.293 159.897 250.101C159.793 249.907 159.647 249.754 159.46 249.643C159.275 249.531 159.06 249.476 158.814 249.476C158.551 249.476 158.32 249.54 158.121 249.668C157.922 249.793 157.767 249.959 157.656 250.165C157.547 250.368 157.491 250.592 157.489 250.836V251.592C157.489 251.91 157.547 252.182 157.663 252.409C157.779 252.634 157.941 252.807 158.15 252.928C158.358 253.046 158.602 253.105 158.881 253.105C159.068 253.105 159.237 253.079 159.389 253.027C159.54 252.973 159.672 252.893 159.783 252.789C159.894 252.685 159.978 252.556 160.035 252.402L161.236 252.537C161.16 252.854 161.015 253.131 160.802 253.368C160.592 253.602 160.322 253.785 159.993 253.915C159.664 254.043 159.287 254.107 158.863 254.107ZM165.853 251.706V248.545H167.138V254H165.892V253.031H165.835C165.712 253.336 165.51 253.586 165.228 253.78C164.949 253.974 164.604 254.071 164.195 254.071C163.837 254.071 163.521 253.992 163.246 253.833C162.974 253.672 162.761 253.439 162.607 253.134C162.453 252.826 162.376 252.454 162.376 252.018V248.545H163.662V251.82C163.662 252.165 163.757 252.44 163.946 252.643C164.135 252.847 164.384 252.949 164.692 252.949C164.881 252.949 165.065 252.903 165.242 252.81C165.42 252.718 165.565 252.581 165.679 252.398C165.795 252.214 165.853 251.983 165.853 251.706ZM168.46 254V248.545H169.707V249.455H169.764C169.863 249.14 170.033 248.897 170.275 248.727C170.519 248.554 170.797 248.467 171.109 248.467C171.18 248.467 171.26 248.471 171.347 248.478C171.437 248.483 171.512 248.491 171.571 248.503V249.685C171.517 249.666 171.43 249.65 171.312 249.636C171.196 249.619 171.083 249.611 170.975 249.611C170.74 249.611 170.529 249.662 170.342 249.763C170.158 249.863 170.012 250.001 169.906 250.179C169.799 250.357 169.746 250.561 169.746 250.793V254H168.46ZM174.58 254.107C174.047 254.107 173.585 253.989 173.195 253.755C172.804 253.521 172.501 253.193 172.286 252.771C172.073 252.35 171.966 251.857 171.966 251.294C171.966 250.731 172.073 250.237 172.286 249.813C172.501 249.389 172.804 249.06 173.195 248.826C173.585 248.592 174.047 248.474 174.58 248.474C175.112 248.474 175.574 248.592 175.965 248.826C176.355 249.06 176.657 249.389 176.87 249.813C177.086 250.237 177.193 250.731 177.193 251.294C177.193 251.857 177.086 252.35 176.87 252.771C176.657 253.193 176.355 253.521 175.965 253.755C175.574 253.989 175.112 254.107 174.58 254.107ZM174.587 253.077C174.876 253.077 175.117 252.997 175.311 252.839C175.505 252.678 175.65 252.462 175.745 252.192C175.842 251.923 175.89 251.622 175.89 251.29C175.89 250.957 175.842 250.655 175.745 250.385C175.65 250.113 175.505 249.896 175.311 249.735C175.117 249.574 174.876 249.494 174.587 249.494C174.291 249.494 174.045 249.574 173.848 249.735C173.654 249.896 173.509 250.113 173.411 250.385C173.317 250.655 173.269 250.957 173.269 251.29C173.269 251.622 173.317 251.923 173.411 252.192C173.509 252.462 173.654 252.678 173.848 252.839C174.045 252.997 174.291 253.077 174.587 253.077Z" fill="black"/>
<rect x="143" y="185" width="40" height="47" rx="6" fill="#1565C0"/>
<rect x="143" y="112" width="40" height="68" rx="6" fill="#1565C0" fill-opacity="0.3"/>
<path d="M84.5177 250.364C84.5177 251.147 84.3709 251.818 84.0773 252.377C83.7861 252.933 83.3884 253.36 82.8841 253.656C82.3823 253.951 81.8129 254.099 81.176 254.099C80.5392 254.099 79.9687 253.951 79.4644 253.656C78.9625 253.357 78.5648 252.93 78.2712 252.374C77.98 251.815 77.8344 251.145 77.8344 250.364C77.8344 249.58 77.98 248.91 78.2712 248.354C78.5648 247.795 78.9625 247.368 79.4644 247.072C79.9687 246.776 80.5392 246.628 81.176 246.628C81.8129 246.628 82.3823 246.776 82.8841 247.072C83.3884 247.368 83.7861 247.795 84.0773 248.354C84.3709 248.91 84.5177 249.58 84.5177 250.364ZM83.1931 250.364C83.1931 249.812 83.1067 249.347 82.9339 248.968C82.7634 248.587 82.5267 248.299 82.2236 248.105C81.9206 247.909 81.5714 247.81 81.176 247.81C80.7807 247.81 80.4315 247.909 80.1285 248.105C79.8254 248.299 79.5875 248.587 79.4147 248.968C79.2442 249.347 79.159 249.812 79.159 250.364C79.159 250.915 79.2442 251.382 79.4147 251.763C79.5875 252.142 79.8254 252.429 80.1285 252.626C80.4315 252.82 80.7807 252.917 81.176 252.917C81.5714 252.917 81.9206 252.82 82.2236 252.626C82.5267 252.429 82.7634 252.142 82.9339 251.763C83.1067 251.382 83.1931 250.915 83.1931 250.364ZM86.9919 250.804V254H85.7064V248.545H86.9351V249.472H86.999C87.1245 249.167 87.3245 248.924 87.5992 248.744C87.8762 248.564 88.2182 248.474 88.6254 248.474C89.0019 248.474 89.3298 248.555 89.6091 248.716C89.8908 248.877 90.1086 249.11 90.2625 249.415C90.4188 249.721 90.4957 250.091 90.4933 250.527V254H89.2078V250.726C89.2078 250.361 89.1131 250.076 88.9237 249.87C88.7367 249.664 88.4775 249.561 88.146 249.561C87.9211 249.561 87.7211 249.611 87.5459 249.71C87.3731 249.807 87.2369 249.948 87.1375 250.133C87.0405 250.317 86.9919 250.541 86.9919 250.804ZM94.1794 254.107C93.6349 254.107 93.1673 253.987 92.7767 253.748C92.3885 253.509 92.089 253.179 91.8783 252.757C91.67 252.333 91.5658 251.846 91.5658 251.294C91.5658 250.74 91.6723 250.251 91.8854 249.827C92.0985 249.401 92.3991 249.07 92.7874 248.833C93.178 248.594 93.6396 248.474 94.1723 248.474C94.615 248.474 95.0068 248.556 95.3477 248.719C95.691 248.88 95.9645 249.109 96.1681 249.405C96.3717 249.698 96.4877 250.042 96.5161 250.435H95.2874C95.2377 250.172 95.1193 249.953 94.9323 249.778C94.7476 249.6 94.5002 249.511 94.1901 249.511C93.9273 249.511 93.6965 249.582 93.4976 249.724C93.2987 249.864 93.1437 250.065 93.0324 250.328C92.9235 250.591 92.8691 250.906 92.8691 251.273C92.8691 251.644 92.9235 251.964 93.0324 252.232C93.1413 252.497 93.294 252.701 93.4905 252.846C93.6894 252.988 93.9226 253.059 94.1901 253.059C94.3795 253.059 94.5487 253.023 94.6979 252.952C94.8494 252.879 94.9761 252.774 95.0779 252.636C95.1797 252.499 95.2495 252.332 95.2874 252.136H96.5161C96.4853 252.522 96.3717 252.864 96.1752 253.162C95.9787 253.458 95.7111 253.69 95.3726 253.858C95.0341 254.024 94.6363 254.107 94.1794 254.107ZM99.9509 254.107C99.4182 254.107 98.9566 253.989 98.566 253.755C98.1753 253.521 97.8723 253.193 97.6569 252.771C97.4438 252.35 97.3373 251.857 97.3373 251.294C97.3373 250.731 97.4438 250.237 97.6569 249.813C97.8723 249.389 98.1753 249.06 98.566 248.826C98.9566 248.592 99.4182 248.474 99.9509 248.474C100.484 248.474 100.945 248.592 101.336 248.826C101.726 249.06 102.028 249.389 102.241 249.813C102.457 250.237 102.565 250.731 102.565 251.294C102.565 251.857 102.457 252.35 102.241 252.771C102.028 253.193 101.726 253.521 101.336 253.755C100.945 253.989 100.484 254.107 99.9509 254.107ZM99.958 253.077C100.247 253.077 100.488 252.997 100.682 252.839C100.877 252.678 101.021 252.462 101.116 252.192C101.213 251.923 101.261 251.622 101.261 251.29C101.261 250.957 101.213 250.655 101.116 250.385C101.021 250.113 100.877 249.896 100.682 249.735C100.488 249.574 100.247 249.494 99.958 249.494C99.6621 249.494 99.4159 249.574 99.2194 249.735C99.0252 249.896 98.8796 250.113 98.7826 250.385C98.6879 250.655 98.6405 250.957 98.6405 251.29C98.6405 251.622 98.6879 251.923 98.7826 252.192C98.8796 252.462 99.0252 252.678 99.2194 252.839C99.4159 252.997 99.6621 253.077 99.958 253.077ZM104.941 246.727V254H103.656V246.727H104.941ZM108.642 254.107C108.11 254.107 107.648 253.989 107.257 253.755C106.867 253.521 106.564 253.193 106.348 252.771C106.135 252.35 106.029 251.857 106.029 251.294C106.029 250.731 106.135 250.237 106.348 249.813C106.564 249.389 106.867 249.06 107.257 248.826C107.648 248.592 108.11 248.474 108.642 248.474C109.175 248.474 109.637 248.592 110.027 248.826C110.418 249.06 110.72 249.389 110.933 249.813C111.148 250.237 111.256 250.731 111.256 251.294C111.256 251.857 111.148 252.35 110.933 252.771C110.72 253.193 110.418 253.521 110.027 253.755C109.637 253.989 109.175 254.107 108.642 254.107ZM108.649 253.077C108.938 253.077 109.18 252.997 109.374 252.839C109.568 252.678 109.712 252.462 109.807 252.192C109.904 251.923 109.953 251.622 109.953 251.29C109.953 250.957 109.904 250.655 109.807 250.385C109.712 250.113 109.568 249.896 109.374 249.735C109.18 249.574 108.938 249.494 108.649 249.494C108.353 249.494 108.107 249.574 107.911 249.735C107.717 249.896 107.571 250.113 107.474 250.385C107.379 250.655 107.332 250.957 107.332 251.29C107.332 251.622 107.379 251.923 107.474 252.192C107.571 252.462 107.717 252.678 107.911 252.839C108.107 252.997 108.353 253.077 108.649 253.077ZM114.719 256.159C114.258 256.159 113.861 256.096 113.53 255.971C113.198 255.848 112.932 255.682 112.731 255.474C112.529 255.265 112.39 255.035 112.312 254.781L113.469 254.501C113.521 254.607 113.597 254.713 113.696 254.817C113.796 254.923 113.93 255.011 114.098 255.08C114.268 255.151 114.482 255.186 114.741 255.186C115.105 255.186 115.407 255.097 115.646 254.92C115.885 254.745 116.005 254.456 116.005 254.053V253.02H115.941C115.874 253.152 115.777 253.289 115.65 253.428C115.524 253.568 115.357 253.685 115.149 253.78C114.943 253.875 114.684 253.922 114.371 253.922C113.952 253.922 113.572 253.824 113.231 253.627C112.893 253.428 112.623 253.132 112.422 252.739C112.223 252.344 112.123 251.849 112.123 251.255C112.123 250.656 112.223 250.151 112.422 249.739C112.623 249.324 112.894 249.011 113.235 248.798C113.576 248.582 113.956 248.474 114.375 248.474C114.694 248.474 114.957 248.529 115.163 248.638C115.371 248.744 115.537 248.873 115.66 249.025C115.783 249.174 115.877 249.315 115.941 249.447H116.012V248.545H117.28V254.089C117.28 254.555 117.168 254.941 116.946 255.246C116.723 255.552 116.419 255.78 116.033 255.932C115.647 256.083 115.209 256.159 114.719 256.159ZM114.73 252.913C115.002 252.913 115.234 252.847 115.426 252.714C115.618 252.582 115.763 252.391 115.863 252.143C115.962 251.894 116.012 251.596 116.012 251.248C116.012 250.905 115.962 250.604 115.863 250.346C115.766 250.088 115.621 249.888 115.429 249.746C115.24 249.601 115.007 249.529 114.73 249.529C114.443 249.529 114.204 249.604 114.013 249.753C113.821 249.902 113.676 250.107 113.579 250.367C113.482 250.625 113.434 250.919 113.434 251.248C113.434 251.582 113.482 251.874 113.579 252.125C113.679 252.374 113.824 252.568 114.016 252.707C114.21 252.845 114.448 252.913 114.73 252.913ZM119.396 256.045C119.221 256.045 119.059 256.031 118.91 256.003C118.763 255.977 118.646 255.946 118.558 255.911L118.856 254.909C119.043 254.964 119.21 254.99 119.357 254.987C119.504 254.985 119.633 254.939 119.744 254.849C119.858 254.761 119.954 254.614 120.032 254.408L120.142 254.114L118.164 248.545H119.527L120.785 252.665H120.841L122.102 248.545H123.469L121.285 254.661C121.183 254.949 121.049 255.197 120.88 255.403C120.712 255.611 120.506 255.77 120.263 255.879C120.021 255.99 119.732 256.045 119.396 256.045Z" fill="black"/>
<rect x="81" y="165" width="40" height="67" rx="6" fill="#1565C0"/>
<rect x="81" y="129" width="40" height="31" rx="6" fill="#1565C0" fill-opacity="0.3"/>
<path d="M16.1388 249.181H14.8106C14.7728 248.963 14.7029 248.77 14.6011 248.602C14.4993 248.432 14.3727 248.287 14.2211 248.169C14.0696 248.051 13.8968 247.962 13.7027 247.903C13.5109 247.841 13.3038 247.81 13.0812 247.81C12.6859 247.81 12.3355 247.91 12.0301 248.109C11.7247 248.305 11.4856 248.594 11.3128 248.975C11.1399 249.354 11.0535 249.817 11.0535 250.364C11.0535 250.92 11.1399 251.389 11.3128 251.77C11.488 252.149 11.7271 252.435 12.0301 252.629C12.3355 252.821 12.6847 252.917 13.0777 252.917C13.2955 252.917 13.4991 252.888 13.6885 252.832C13.8802 252.772 14.0519 252.686 14.2034 252.572C14.3573 252.459 14.4863 252.319 14.5905 252.153C14.697 251.988 14.7704 251.798 14.8106 251.585L16.1388 251.592C16.089 251.938 15.9813 252.262 15.8156 252.565C15.6523 252.868 15.438 253.136 15.1729 253.368C14.9077 253.598 14.5976 253.777 14.2425 253.908C13.8873 254.036 13.4932 254.099 13.0599 254.099C12.4207 254.099 11.8502 253.951 11.3483 253.656C10.8464 253.36 10.451 252.932 10.1622 252.374C9.87337 251.815 9.72896 251.145 9.72896 250.364C9.72896 249.58 9.87456 248.91 10.1657 248.354C10.4569 247.795 10.8535 247.368 11.3554 247.072C11.8573 246.776 12.4255 246.628 13.0599 246.628C13.4648 246.628 13.8412 246.685 14.1892 246.798C14.5372 246.912 14.8473 247.079 15.1196 247.299C15.3918 247.517 15.6156 247.784 15.7907 248.102C15.9683 248.416 16.0843 248.776 16.1388 249.181ZM18.858 254.11C18.5124 254.11 18.2011 254.049 17.9241 253.925C17.6495 253.8 17.4317 253.615 17.2707 253.371C17.1121 253.128 17.0328 252.827 17.0328 252.469C17.0328 252.162 17.0896 251.907 17.2032 251.706C17.3169 251.505 17.4719 251.344 17.6684 251.223C17.8649 251.102 18.0863 251.011 18.3325 250.95C18.5811 250.886 18.8379 250.839 19.1031 250.811C19.4227 250.778 19.6819 250.748 19.8808 250.722C20.0796 250.694 20.224 250.651 20.314 250.594C20.4063 250.535 20.4525 250.444 20.4525 250.321V250.3C20.4525 250.032 20.3732 249.825 20.2146 249.678C20.056 249.531 19.8275 249.458 19.5292 249.458C19.2143 249.458 18.9646 249.527 18.7799 249.664C18.5976 249.801 18.4745 249.964 18.4106 250.151L17.2103 249.98C17.305 249.649 17.4613 249.372 17.6791 249.149C17.8969 248.924 18.1632 248.756 18.4781 248.645C18.7929 248.531 19.141 248.474 19.5221 248.474C19.7849 248.474 20.0465 248.505 20.3069 248.567C20.5673 248.628 20.8052 248.73 21.0207 248.872C21.2361 249.012 21.4089 249.202 21.5392 249.444C21.6717 249.685 21.738 249.987 21.738 250.349V254H20.5022V253.251H20.4596C20.3815 253.402 20.2714 253.544 20.1294 253.677C19.9897 253.807 19.8133 253.912 19.6002 253.993C19.3895 254.071 19.1421 254.11 18.858 254.11ZM19.1919 253.165C19.4499 253.165 19.6736 253.115 19.863 253.013C20.0524 252.909 20.198 252.771 20.2998 252.601C20.404 252.43 20.4561 252.245 20.4561 252.043V251.401C20.4158 251.434 20.3472 251.464 20.2501 251.493C20.1554 251.521 20.0489 251.546 19.9305 251.567C19.8121 251.589 19.6949 251.608 19.5789 251.624C19.4629 251.641 19.3623 251.655 19.2771 251.667C19.0853 251.693 18.9137 251.736 18.7622 251.795C18.6106 251.854 18.4911 251.937 18.4035 252.043C18.3159 252.147 18.2721 252.282 18.2721 252.448C18.2721 252.685 18.3585 252.864 18.5313 252.984C18.7042 253.105 18.9243 253.165 19.1919 253.165ZM23.0306 254V248.545H24.2771V249.455H24.3339C24.4333 249.14 24.6038 248.897 24.8453 248.727C25.0891 248.554 25.3673 248.467 25.6798 248.467C25.7508 248.467 25.8301 248.471 25.9177 248.478C26.0077 248.483 26.0822 248.491 26.1414 248.503V249.685C26.087 249.666 26.0006 249.65 25.8822 249.636C25.7662 249.619 25.6537 249.611 25.5448 249.611C25.3105 249.611 25.0998 249.662 24.9127 249.763C24.7281 249.863 24.5825 250.001 24.4759 250.179C24.3694 250.357 24.3161 250.561 24.3161 250.793V254H23.0306ZM28.795 254.096C28.3665 254.096 27.983 253.986 27.6444 253.766C27.3059 253.545 27.0384 253.226 26.8419 252.807C26.6454 252.388 26.5471 251.879 26.5471 251.28C26.5471 250.674 26.6466 250.162 26.8454 249.746C27.0467 249.327 27.3177 249.011 27.6586 248.798C27.9996 248.582 28.3795 248.474 28.7986 248.474C29.1182 248.474 29.3809 248.529 29.5869 248.638C29.7929 248.744 29.9562 248.873 30.077 249.025C30.1977 249.174 30.2912 249.315 30.3575 249.447H30.4108V246.727H31.6998V254H30.4356V253.141H30.3575C30.2912 253.273 30.1953 253.414 30.0699 253.563C29.9444 253.71 29.7787 253.835 29.5727 253.94C29.3667 254.044 29.1075 254.096 28.795 254.096ZM29.1537 253.041C29.4259 253.041 29.6579 252.968 29.8497 252.821C30.0415 252.672 30.1871 252.465 30.2865 252.2C30.3859 251.934 30.4356 251.625 30.4356 251.273C30.4356 250.92 30.3859 250.613 30.2865 250.353C30.1894 250.093 30.045 249.89 29.8532 249.746C29.6639 249.601 29.4307 249.529 29.1537 249.529C28.8672 249.529 28.6281 249.604 28.4363 249.753C28.2446 249.902 28.1002 250.108 28.0031 250.371C27.906 250.634 27.8575 250.934 27.8575 251.273C27.8575 251.614 27.906 251.918 28.0031 252.185C28.1025 252.451 28.2481 252.66 28.4399 252.814C28.634 252.965 28.872 253.041 29.1537 253.041ZM33.0697 254V248.545H34.3552V254H33.0697ZM33.716 247.771C33.5124 247.771 33.3372 247.704 33.1904 247.569C33.0436 247.432 32.9703 247.267 32.9703 247.075C32.9703 246.881 33.0436 246.717 33.1904 246.582C33.3372 246.444 33.5124 246.376 33.716 246.376C33.922 246.376 34.0972 246.444 34.2416 246.582C34.3883 246.717 34.4617 246.881 34.4617 247.075C34.4617 247.267 34.3883 247.432 34.2416 247.569C34.0972 247.704 33.922 247.771 33.716 247.771ZM38.0564 254.107C37.5237 254.107 37.0621 253.989 36.6714 253.755C36.2808 253.521 35.9778 253.193 35.7623 252.771C35.5493 252.35 35.4427 251.857 35.4427 251.294C35.4427 250.731 35.5493 250.237 35.7623 249.813C35.9778 249.389 36.2808 249.06 36.6714 248.826C37.0621 248.592 37.5237 248.474 38.0564 248.474C38.589 248.474 39.0507 248.592 39.4413 248.826C39.8319 249.06 40.1338 249.389 40.3469 249.813C40.5623 250.237 40.67 250.731 40.67 251.294C40.67 251.857 40.5623 252.35 40.3469 252.771C40.1338 253.193 39.8319 253.521 39.4413 253.755C39.0507 253.989 38.589 254.107 38.0564 254.107ZM38.0635 253.077C38.3523 253.077 38.5938 252.997 38.7879 252.839C38.982 252.678 39.1265 252.462 39.2211 252.192C39.3182 251.923 39.3667 251.622 39.3667 251.29C39.3667 250.957 39.3182 250.655 39.2211 250.385C39.1265 250.113 38.982 249.896 38.7879 249.735C38.5938 249.574 38.3523 249.494 38.0635 249.494C37.7675 249.494 37.5213 249.574 37.3248 249.735C37.1307 249.896 36.9851 250.113 36.8881 250.385C36.7934 250.655 36.746 250.957 36.746 251.29C36.746 251.622 36.7934 251.923 36.8881 252.192C36.9851 252.462 37.1307 252.678 37.3248 252.839C37.5213 252.997 37.7675 253.077 38.0635 253.077ZM43.0466 246.727V254H41.7611V246.727H43.0466ZM46.7478 254.107C46.2151 254.107 45.7535 253.989 45.3628 253.755C44.9722 253.521 44.6692 253.193 44.4537 252.771C44.2407 252.35 44.1341 251.857 44.1341 251.294C44.1341 250.731 44.2407 250.237 44.4537 249.813C44.6692 249.389 44.9722 249.06 45.3628 248.826C45.7535 248.592 46.2151 248.474 46.7478 248.474C47.2805 248.474 47.7421 248.592 48.1327 248.826C48.5233 249.06 48.8252 249.389 49.0383 249.813C49.2537 250.237 49.3614 250.731 49.3614 251.294C49.3614 251.857 49.2537 252.35 49.0383 252.771C48.8252 253.193 48.5233 253.521 48.1327 253.755C47.7421 253.989 47.2805 254.107 46.7478 254.107ZM46.7549 253.077C47.0437 253.077 47.2852 252.997 47.4793 252.839C47.6734 252.678 47.8179 252.462 47.9126 252.192C48.0096 251.923 48.0581 251.622 48.0581 251.29C48.0581 250.957 48.0096 250.655 47.9126 250.385C47.8179 250.113 47.6734 249.896 47.4793 249.735C47.2852 249.574 47.0437 249.494 46.7549 249.494C46.459 249.494 46.2127 249.574 46.0162 249.735C45.8221 249.896 45.6765 250.113 45.5795 250.385C45.4848 250.655 45.4374 250.957 45.4374 251.29C45.4374 251.622 45.4848 251.923 45.5795 252.192C45.6765 252.462 45.8221 252.678 46.0162 252.839C46.2127 252.997 46.459 253.077 46.7549 253.077ZM52.8247 256.159C52.363 256.159 51.9665 256.096 51.635 255.971C51.3036 255.848 51.0373 255.682 50.836 255.474C50.6348 255.265 50.4951 255.035 50.417 254.781L51.5747 254.501C51.6267 254.607 51.7025 254.713 51.8019 254.817C51.9014 254.923 52.0351 255.011 52.2032 255.08C52.3737 255.151 52.5879 255.186 52.846 255.186C53.2106 255.186 53.5124 255.097 53.7515 254.92C53.9906 254.745 54.1102 254.456 54.1102 254.053V253.02H54.0463C53.98 253.152 53.8829 253.289 53.7551 253.428C53.6296 253.568 53.4627 253.685 53.2544 253.78C53.0484 253.875 52.7892 253.922 52.4767 253.922C52.0576 253.922 51.6776 253.824 51.3367 253.627C50.9982 253.428 50.7283 253.132 50.5271 252.739C50.3282 252.344 50.2288 251.849 50.2288 251.255C50.2288 250.656 50.3282 250.151 50.5271 249.739C50.7283 249.324 50.9994 249.011 51.3403 248.798C51.6812 248.582 52.0612 248.474 52.4802 248.474C52.7998 248.474 53.0626 248.529 53.2686 248.638C53.4769 248.744 53.6426 248.873 53.7657 249.025C53.8888 249.174 53.9823 249.315 54.0463 249.447H54.1173V248.545H55.385V254.089C55.385 254.555 55.2738 254.941 55.0512 255.246C54.8287 255.552 54.5245 255.78 54.1386 255.932C53.7527 256.083 53.3147 256.159 52.8247 256.159ZM52.8353 252.913C53.1076 252.913 53.3396 252.847 53.5313 252.714C53.7231 252.582 53.8687 252.391 53.9681 252.143C54.0676 251.894 54.1173 251.596 54.1173 251.248C54.1173 250.905 54.0676 250.604 53.9681 250.346C53.8711 250.088 53.7267 249.888 53.5349 249.746C53.3455 249.601 53.1123 249.529 52.8353 249.529C52.5489 249.529 52.3097 249.604 52.118 249.753C51.9262 249.902 51.7818 250.107 51.6847 250.367C51.5877 250.625 51.5392 250.919 51.5392 251.248C51.5392 251.582 51.5877 251.874 51.6847 252.125C51.7842 252.374 51.9298 252.568 52.1215 252.707C52.3157 252.845 52.5536 252.913 52.8353 252.913ZM57.5015 256.045C57.3263 256.045 57.1642 256.031 57.015 256.003C56.8682 255.977 56.751 255.946 56.6634 255.911L56.9617 254.909C57.1488 254.964 57.3157 254.99 57.4624 254.987C57.6092 254.985 57.7383 254.939 57.8495 254.849C57.9632 254.761 58.059 254.614 58.1372 254.408L58.2472 254.114L56.2693 248.545H57.6329L58.89 252.665H58.9468L60.2075 248.545H61.5747L59.3907 254.661C59.2889 254.949 59.154 255.197 58.9859 255.403C58.8178 255.611 58.6118 255.77 58.368 255.879C58.1265 255.99 57.8377 256.045 57.5015 256.045Z" fill="black"/>
<rect x="16" y="151" width="40" height="81" rx="6" fill="#1565C0"/>
<rect x="16" y="111" width="40" height="35" rx="6" fill="#1565C0" fill-opacity="0.3"/>
<line opacity="0.3" x1="4.37114e-08" y1="155.5" x2="506" y2="155.5" stroke="#212121" stroke-dasharray="5 5"/>
<line x1="4.37114e-08" y1="74.5" x2="506" y2="74.5" stroke="#212121" stroke-dasharray="5 5"/>
<path d="M0 74.5C0 68.701 4.70101 64 10.5 64H43.5C49.299 64 54 68.701 54 74.5V74.5C54 80.299 49.299 85 43.5 85H10.5C4.70101 85 0 80.299 0 74.5V74.5Z" fill="#212121"/>
<path d="M15.0154 69.8182V80H13.7824V71.1108H13.7227L11.2369 72.7614V71.5085L13.7824 69.8182H15.0154ZM21.2646 80.1392C20.5156 80.1392 19.8776 79.9354 19.3506 79.5277C18.8236 79.1167 18.4209 78.5218 18.1425 77.7429C17.8641 76.9607 17.7249 76.0161 17.7249 74.9091C17.7249 73.8087 17.8641 72.8691 18.1425 72.0902C18.4242 71.308 18.8286 70.7114 19.3556 70.3004C19.8859 69.8861 20.5222 69.679 21.2646 69.679C22.0071 69.679 22.6418 69.8861 23.1688 70.3004C23.6991 70.7114 24.1034 71.308 24.3818 72.0902C24.6636 72.8691 24.8044 73.8087 24.8044 74.9091C24.8044 76.0161 24.6652 76.9607 24.3868 77.7429C24.1084 78.5218 23.7057 79.1167 23.1787 79.5277C22.6517 79.9354 22.0137 80.1392 21.2646 80.1392ZM21.2646 79.0455C22.0071 79.0455 22.5838 78.6875 22.9948 77.9716C23.4057 77.2557 23.6112 76.2348 23.6112 74.9091C23.6112 74.0275 23.5168 73.2768 23.3279 72.657C23.1423 72.0372 22.8738 71.5649 22.5225 71.2401C22.1744 70.9152 21.7552 70.7528 21.2646 70.7528C20.5289 70.7528 19.9538 71.1158 19.5395 71.8416C19.1252 72.5642 18.9181 73.5866 18.9181 74.9091C18.9181 75.7907 19.0109 76.5398 19.1965 77.1562C19.3821 77.7727 19.6489 78.2417 19.9969 78.5632C20.3482 78.8847 20.7708 79.0455 21.2646 79.0455ZM30.0146 80.1392C29.2656 80.1392 28.6276 79.9354 28.1006 79.5277C27.5736 79.1167 27.1709 78.5218 26.8925 77.7429C26.6141 76.9607 26.4749 76.0161 26.4749 74.9091C26.4749 73.8087 26.6141 72.8691 26.8925 72.0902C27.1742 71.308 27.5786 70.7114 28.1056 70.3004C28.6359 69.8861 29.2722 69.679 30.0146 69.679C30.7571 69.679 31.3918 69.8861 31.9188 70.3004C32.4491 70.7114 32.8534 71.308 33.1318 72.0902C33.4136 72.8691 33.5544 73.8087 33.5544 74.9091C33.5544 76.0161 33.4152 76.9607 33.1368 77.7429C32.8584 78.5218 32.4557 79.1167 31.9287 79.5277C31.4017 79.9354 30.7637 80.1392 30.0146 80.1392ZM30.0146 79.0455C30.7571 79.0455 31.3338 78.6875 31.7448 77.9716C32.1557 77.2557 32.3612 76.2348 32.3612 74.9091C32.3612 74.0275 32.2668 73.2768 32.0779 72.657C31.8923 72.0372 31.6238 71.5649 31.2725 71.2401C30.9244 70.9152 30.5052 70.7528 30.0146 70.7528C29.2789 70.7528 28.7038 71.1158 28.2895 71.8416C27.8752 72.5642 27.6681 73.5866 27.6681 74.9091C27.6681 75.7907 27.7609 76.5398 27.9465 77.1562C28.1321 77.7727 28.3989 78.2417 28.7469 78.5632C29.0982 78.8847 29.5208 79.0455 30.0146 79.0455ZM38.4465 78.2102V71.6477H39.5601V78.2102H38.4465ZM35.722 75.4858V74.3722H42.2845V75.4858H35.722Z" fill="white"/>
</svg>
