<svg width="147" height="34" viewBox="0 0 147 34" fill="none" xmlns="http://www.w3.org/2000/svg">
<path d="M2.39134 6.63636H6.90554L12.951 21.392H13.1896L19.2351 6.63636H23.7493V27H20.2095V13.0099H20.0206L14.3928 26.9403H11.7479L6.12003 12.9801H5.93111V27H2.39134V6.63636ZM34.3686 27.2983C32.8374 27.2983 31.5149 26.9801 30.4013 26.3438C29.2943 25.7008 28.4425 24.7926 27.8459 23.6193C27.2493 22.4394 26.951 21.0507 26.951 19.4531C26.951 17.8821 27.2493 16.5033 27.8459 15.3168C28.4491 14.1236 29.291 13.1955 30.3714 12.5327C31.4519 11.8632 32.7214 11.5284 34.1797 11.5284C35.121 11.5284 36.0092 11.6809 36.8445 11.9858C37.6863 12.2841 38.4287 12.7481 39.0717 13.3778C39.7214 14.0076 40.2318 14.8097 40.603 15.7841C40.9742 16.7519 41.1598 17.9053 41.1598 19.2443V20.348H28.6413V17.9219H37.7095C37.7029 17.2325 37.5537 16.6193 37.2621 16.0824C36.9704 15.5388 36.5627 15.1113 36.0391 14.7997C35.522 14.4882 34.9188 14.3324 34.2294 14.3324C33.4936 14.3324 32.8473 14.5114 32.2905 14.8693C31.7337 15.2206 31.2995 15.6847 30.9879 16.2614C30.683 16.8314 30.5272 17.4579 30.5206 18.1406V20.2585C30.5206 21.1468 30.683 21.9091 31.0078 22.5455C31.3326 23.1752 31.7867 23.6591 32.37 23.9972C32.9534 24.3286 33.6361 24.4943 34.4183 24.4943C34.942 24.4943 35.416 24.4214 35.8402 24.2756C36.2644 24.1231 36.6323 23.901 36.9439 23.6094C37.2554 23.3177 37.4908 22.9564 37.6499 22.5256L41.0107 22.9034C40.7985 23.7917 40.3942 24.5672 39.7976 25.2301C39.2076 25.8864 38.4519 26.3968 37.5305 26.7614C36.6091 27.1193 35.5552 27.2983 34.3686 27.2983ZM49.8725 27.2685C48.6727 27.2685 47.5988 26.9602 46.6509 26.3438C45.703 25.7273 44.954 24.8324 44.4038 23.6591C43.8536 22.4858 43.5785 21.0606 43.5785 19.3835C43.5785 17.6866 43.8569 16.2547 44.4137 15.0881C44.9772 13.9148 45.7362 13.0298 46.6907 12.4332C47.6452 11.83 48.7092 11.5284 49.8825 11.5284C50.7773 11.5284 51.5131 11.6809 52.0898 11.9858C52.6665 12.2841 53.1239 12.6454 53.462 13.0696C53.8001 13.4872 54.0619 13.8816 54.2475 14.2528H54.3967V6.63636H58.006V27H54.4663V24.5938H54.2475C54.0619 24.965 53.7934 25.3594 53.4421 25.777C53.0908 26.188 52.6268 26.5393 52.0501 26.831C51.4734 27.1226 50.7475 27.2685 49.8725 27.2685ZM50.8768 24.3153C51.6391 24.3153 52.2887 24.1098 52.8256 23.6989C53.3626 23.2812 53.7702 22.7012 54.0487 21.9588C54.3271 21.2164 54.4663 20.3513 54.4663 19.3636C54.4663 18.3759 54.3271 17.5175 54.0487 16.7884C53.7769 16.0592 53.3725 15.4924 52.8356 15.0881C52.3053 14.6837 51.6523 14.4815 50.8768 14.4815C50.0747 14.4815 49.4052 14.6903 48.8683 15.108C48.3313 15.5256 47.927 16.1023 47.6552 16.8381C47.3834 17.5739 47.2475 18.4157 47.2475 19.3636C47.2475 20.3182 47.3834 21.17 47.6552 21.919C47.9336 22.6615 48.3413 23.2481 48.8782 23.679C49.4218 24.1032 50.088 24.3153 50.8768 24.3153ZM61.8416 27V11.7273H65.4411V27H61.8416ZM63.6513 9.55966C63.0812 9.55966 62.5907 9.37074 62.1797 8.9929C61.7687 8.60843 61.5632 8.14773 61.5632 7.61079C61.5632 7.06723 61.7687 6.60653 62.1797 6.22869C62.5907 5.84422 63.0812 5.65199 63.6513 5.65199C64.228 5.65199 64.7185 5.84422 65.1229 6.22869C65.5339 6.60653 65.7393 7.06723 65.7393 7.61079C65.7393 8.14773 65.5339 8.60843 65.1229 8.9929C64.7185 9.37074 64.228 9.55966 63.6513 9.55966Z" fill="#1565C0"/>
<path d="M86.7319 13.5071H83.0131C82.9071 12.8973 82.7115 12.357 82.4265 11.8864C82.1415 11.4091 81.7868 11.0047 81.3626 10.6733C80.9383 10.3419 80.4544 10.0933 79.9109 9.92756C79.3739 9.75521 78.7939 9.66903 78.1708 9.66903C77.0638 9.66903 76.0827 9.94744 75.2276 10.5043C74.3725 11.0544 73.703 11.8632 73.2191 12.9304C72.7352 13.991 72.4933 15.2869 72.4933 16.8182C72.4933 18.3759 72.7352 19.6884 73.2191 20.7557C73.7096 21.8163 74.3791 22.6184 75.2276 23.1619C76.0827 23.6989 77.0605 23.9673 78.1609 23.9673C78.7707 23.9673 79.3408 23.8878 79.8711 23.7287C80.408 23.563 80.8886 23.321 81.3129 23.0028C81.7437 22.6847 82.105 22.2936 82.3967 21.8295C82.695 21.3655 82.9005 20.8352 83.0131 20.2386L86.7319 20.2585C86.5927 21.2263 86.2911 22.1345 85.8271 22.983C85.3697 23.8314 84.7698 24.5805 84.0273 25.2301C83.2849 25.8731 82.4165 26.3769 81.4222 26.7415C80.4279 27.0994 79.3242 27.2784 78.1112 27.2784C76.3214 27.2784 74.7238 26.8641 73.3185 26.0355C71.9132 25.2069 70.8062 24.0104 69.9975 22.446C69.1888 20.8816 68.7844 19.0057 68.7844 16.8182C68.7844 14.6241 69.1921 12.7481 70.0075 11.1903C70.8228 9.62595 71.9331 8.42945 73.3384 7.60085C74.7437 6.77225 76.3346 6.35795 78.1112 6.35795C79.2447 6.35795 80.2987 6.51704 81.2731 6.83523C82.2475 7.15341 83.1159 7.62074 83.8782 8.23722C84.6405 8.84706 85.2669 9.59612 85.7575 10.4844C86.2546 11.366 86.5794 12.3736 86.7319 13.5071ZM94.3459 27.3082C93.3781 27.3082 92.5064 27.1359 91.7308 26.7912C90.9619 26.4399 90.352 25.9228 89.9013 25.2401C89.4571 24.5573 89.2351 23.7154 89.2351 22.7145C89.2351 21.8527 89.3942 21.1402 89.7124 20.5767C90.0305 20.0133 90.4647 19.5625 91.0149 19.2244C91.5651 18.8864 92.1849 18.6312 92.8743 18.4588C93.5703 18.2798 94.2895 18.1506 95.032 18.071C95.9268 17.9782 96.6527 17.8954 97.2095 17.8224C97.7663 17.7429 98.1707 17.6236 98.4226 17.4645C98.6811 17.2988 98.8104 17.0436 98.8104 16.6989V16.6392C98.8104 15.8902 98.5883 15.3101 98.1442 14.8991C97.7 14.4882 97.0604 14.2827 96.2251 14.2827C95.3435 14.2827 94.6442 14.4749 94.1271 14.8594C93.6167 15.2438 93.272 15.6979 93.093 16.2216L89.7322 15.7443C89.9974 14.8163 90.4349 14.0407 91.0447 13.4176C91.6546 12.7879 92.4003 12.3172 93.282 12.0057C94.1636 11.6875 95.138 11.5284 96.2053 11.5284C96.9411 11.5284 97.6735 11.6146 98.4027 11.7869C99.1319 11.9593 99.7981 12.2443 100.401 12.642C101.004 13.0331 101.488 13.5668 101.853 14.2429C102.224 14.919 102.41 15.7642 102.41 16.7784V27H98.9496V24.902H98.8303C98.6115 25.3262 98.3033 25.724 97.9055 26.0952C97.5144 26.4598 97.0206 26.7547 96.424 26.9801C95.834 27.1989 95.1413 27.3082 94.3459 27.3082ZM95.2805 24.6634C96.0031 24.6634 96.6295 24.5208 97.1598 24.2358C97.6901 23.9441 98.0978 23.5597 98.3828 23.0824C98.6745 22.6051 98.8203 22.0848 98.8203 21.5213V19.7216C98.7076 19.8144 98.5154 19.9006 98.2436 19.9801C97.9785 20.0597 97.6802 20.1293 97.3487 20.1889C97.0173 20.2486 96.6892 20.3016 96.3643 20.348C96.0395 20.3944 95.7578 20.4342 95.5192 20.4673C94.9822 20.5402 94.5017 20.6596 94.0774 20.8253C93.6532 20.991 93.3184 21.223 93.0732 21.5213C92.8279 21.813 92.7053 22.1908 92.7053 22.6548C92.7053 23.3177 92.9472 23.8182 93.4311 24.1562C93.915 24.4943 94.5315 24.6634 95.2805 24.6634ZM106.029 27V11.7273H109.519V14.2727H109.678C109.957 13.3911 110.434 12.7116 111.11 12.2344C111.793 11.7505 112.572 11.5085 113.447 11.5085C113.646 11.5085 113.868 11.5185 114.113 11.5384C114.365 11.5516 114.574 11.5748 114.739 11.608V14.919C114.587 14.866 114.345 14.8196 114.013 14.7798C113.689 14.7334 113.374 14.7102 113.069 14.7102C112.413 14.7102 111.823 14.8527 111.299 15.1378C110.782 15.4162 110.374 15.804 110.076 16.3011C109.778 16.7983 109.629 17.3717 109.629 18.0213V27H106.029ZM123.263 27.2983C121.732 27.2983 120.409 26.9801 119.296 26.3438C118.189 25.7008 117.337 24.7926 116.74 23.6193C116.144 22.4394 115.846 21.0507 115.846 19.4531C115.846 17.8821 116.144 16.5033 116.74 15.3168C117.344 14.1236 118.185 13.1955 119.266 12.5327C120.346 11.8632 121.616 11.5284 123.074 11.5284C124.016 11.5284 124.904 11.6809 125.739 11.9858C126.581 12.2841 127.323 12.7481 127.966 13.3778C128.616 14.0076 129.126 14.8097 129.498 15.7841C129.869 16.7519 130.054 17.9053 130.054 19.2443V20.348H117.536V17.9219H126.604C126.597 17.2325 126.448 16.6193 126.157 16.0824C125.865 15.5388 125.457 15.1113 124.934 14.7997C124.417 14.4882 123.813 14.3324 123.124 14.3324C122.388 14.3324 121.742 14.5114 121.185 14.8693C120.628 15.2206 120.194 15.6847 119.882 16.2614C119.578 16.8314 119.422 17.4579 119.415 18.1406V20.2585C119.415 21.1468 119.578 21.9091 119.902 22.5455C120.227 23.1752 120.681 23.6591 121.265 23.9972C121.848 24.3286 122.531 24.4943 123.313 24.4943C123.837 24.4943 124.31 24.4214 124.735 24.2756C125.159 24.1231 125.527 23.901 125.838 23.6094C126.15 23.3177 126.385 22.9564 126.544 22.5256L129.905 22.9034C129.693 23.7917 129.289 24.5672 128.692 25.2301C128.102 25.8864 127.346 26.3968 126.425 26.7614C125.504 27.1193 124.45 27.2983 123.263 27.2983ZM145.17 15.7642L141.889 16.1222C141.796 15.7907 141.634 15.4792 141.402 15.1875C141.177 14.8958 140.872 14.6605 140.487 14.4815C140.103 14.3026 139.632 14.2131 139.075 14.2131C138.326 14.2131 137.696 14.3755 137.186 14.7003C136.682 15.0251 136.434 15.446 136.44 15.9631C136.434 16.4072 136.596 16.7685 136.928 17.0469C137.266 17.3253 137.822 17.554 138.598 17.733L141.203 18.2898C142.648 18.6013 143.722 19.0952 144.425 19.7713C145.134 20.4474 145.492 21.3324 145.499 22.4261C145.492 23.3873 145.21 24.2358 144.653 24.9716C144.103 25.7008 143.338 26.2708 142.357 26.6818C141.375 27.0928 140.249 27.2983 138.976 27.2983C137.107 27.2983 135.602 26.9072 134.462 26.125C133.321 25.3362 132.642 24.2391 132.423 22.8338L135.933 22.4957C136.092 23.1851 136.43 23.7055 136.947 24.0568C137.464 24.4081 138.137 24.5838 138.966 24.5838C139.821 24.5838 140.507 24.4081 141.024 24.0568C141.548 23.7055 141.81 23.2713 141.81 22.7543C141.81 22.3168 141.641 21.9555 141.303 21.6705C140.971 21.3854 140.454 21.1667 139.751 21.0142L137.146 20.4673C135.681 20.1624 134.598 19.6487 133.895 18.9261C133.192 18.197 132.844 17.2756 132.851 16.1619C132.844 15.2206 133.099 14.4053 133.616 13.7159C134.14 13.0199 134.866 12.483 135.794 12.1051C136.729 11.7206 137.806 11.5284 139.026 11.5284C140.815 11.5284 142.224 11.9096 143.251 12.6719C144.286 13.4342 144.925 14.465 145.17 15.7642Z" fill="#00897B"/>
</svg>
